<?xml version="1.0" encoding="utf-8"?>
<svg version="1.1" xmlns:xlink="http://www.w3.org/1999/xlink" width="64px" height="64px" xmlns="http://www.w3.org/2000/svg">
  <g transform="matrix(1 0 0 1 -50 -80 )">
    <path d="M 82 80  C 99.92 80  114 94.08  114 112  C 114 129.92  99.92 144  82 144  C 64.08 144  50 129.92  50 112  C 50 94.08  64.08 80  82 80  Z " fill-rule="nonzero" fill="#ffffff" stroke="none" />
    <path d="M 82 80.5  C 99.64 80.5  113.5 94.36  113.5 112  C 113.5 129.64  99.64 143.5  82 143.5  C 64.36 143.5  50.5 129.64  50.5 112  C 50.5 94.36  64.36 80.5  82 80.5  Z " stroke-width="1" stroke="#797979" fill="none" />
  </g>
</svg>