<?xml version="1.0" encoding="utf-8"?>
<svg version="1.1" xmlns:xlink="http://www.w3.org/1999/xlink" width="16px" height="9px" xmlns="http://www.w3.org/2000/svg">
  <g transform="matrix(1 0 0 1 -1767 -17 )">
    <path d="M 1.77777777777778 1.8  L 13.3333333333333 1.8  L 13.3333333333333 7.2  L 1.77777777777778 7.2  L 1.77777777777778 1.8  Z M 14.2222222222222 7.875  L 14.2222222222222 5.85  L 15.1111111111111 5.85  L 15.1111111111111 3.15  L 14.2222222222222 3.15  L 14.2222222222222 1.125  C 14.2222222222222 1.059375  14.2013888888889 1.00546875  14.1597222222222 0.96328125  C 14.1180555555556 0.92109375  14.0648148148148 0.9  14 1  L 1.11111111111111 1  C 1.0462962962963 0.9  0.993055555555556 0.92109375  0.951388888888889 0.96328125  C 0.909722222222222 1.00546875  0.888888888888889 1.059375  0.888888888888889 1.125  L 0.888888888888889 7.875  C 0.888888888888889 7.940625  0.909722222222222 7.99453125  0.951388888888889 8.03671875  C 0.993055555555556 8.07890625  1.0462962962963 8.1  1.11111111111111 8  L 14 8  C 14.0648148148148 8.1  14.1180555555556 8.07890625  14.1597222222222 8.03671875  C 14.2013888888889 7.99453125  14.2222222222222 7.940625  14.2222222222222 7.875  Z M 15.7395833333333 2.513671875  C 15.9131944444444 2.689453125  16 2.9015625  16 3.15  L 16 5.85  C 16 6.0984375  15.9131944444444 6.310546875  15.7395833333333 6.486328125  C 15.5659722222222 6.662109375  15.3564814814815 6.75  15.1111111111111 6.75  L 15.1111111111111 7.875  C 15.1111111111111 8.184375  15.0023148148148 8.44921875  14.7847222222222 8.66953125  C 14.5671296296296 8.88984375  14.3055555555556 9  14 9  L 1.11111111111111 9  C 0.805555555555556 9  0.543981481481482 8.88984375  0.326388888888889 8.66953125  C 0.108796296296296 8.44921875  0 8.184375  0 7.875  L 0 1.125  C 0 0.815625  0.108796296296296 0.55078125  0.326388888888889 0.33046875  C 0.543981481481482 0.110156249999999  0.805555555555556 0  1.11111111111111 0  L 14 0  C 14.3055555555556 0  14.5671296296296 0.110156249999999  14.7847222222222 0.33046875  C 15.0023148148148 0.55078125  15.1111111111111 0.815625  15.1111111111111 1.125  L 15.1111111111111 2.25  C 15.3564814814815 2.25  15.5659722222222 2.337890625  15.7395833333333 2.513671875  Z " fill-rule="nonzero" fill="#000000" stroke="none" transform="matrix(1 0 0 1 1767 17 )" />
  </g>
</svg>