<?xml version="1.0" encoding="utf-8"?>
<svg version="1.1" xmlns:xlink="http://www.w3.org/1999/xlink" width="16px" height="14px" xmlns="http://www.w3.org/2000/svg">
  <g transform="matrix(1 0 0 1 -347 -13 )">
    <path d="M 2.20535714285714 11.7486979166667  C 2.25892857142857 11.8033854166667  2.28571428571429 11.8732638888889  2.28571428571429 11.9583333333333  L 2.28571428571429 13.7083333333333  C 2.28571428571429 13.7934027777778  2.25892857142857 13.86328125  2.20535714285714 13.91796875  C 2.15178571428571 13.97265625  2.08333333333333 14  2 14  L 0.285714285714286 14  C 0.202380952380952 14  0.133928571428571 13.97265625  0.0803571428571429 13.91796875  C 0.0267857142857143 13.86328125  0 13.7934027777778  0 13.7083333333333  L 0 11.9583333333333  C 0 11.8732638888889  0.0267857142857143 11.8033854166667  0.0803571428571429 11.7486979166667  C 0.133928571428571 11.6940104166667  0.202380952380952 11.6666666666667  0.285714285714286 11.6666666666667  L 2 11.6666666666667  C 2.08333333333333 11.6666666666667  2.15178571428571 11.6940104166667  2.20535714285714 11.7486979166667  Z M 5.63392857142857 10.58203125  C 5.6875 10.63671875  5.71428571428571 10.7065972222222  5.71428571428571 10.7916666666667  L 5.71428571428571 13.7083333333333  C 5.71428571428571 13.7934027777778  5.6875 13.86328125  5.63392857142857 13.91796875  C 5.58035714285714 13.97265625  5.51190476190476 14  5.42857142857143 14  L 3.71428571428571 14  C 3.63095238095238 14  3.5625 13.97265625  3.50892857142857 13.91796875  C 3.45535714285714 13.86328125  3.42857142857143 13.7934027777778  3.42857142857143 13.7083333333333  L 3.42857142857143 10.7916666666667  C 3.42857142857143 10.7065972222222  3.45535714285714 10.63671875  3.50892857142857 10.58203125  C 3.5625 10.52734375  3.63095238095238 10.5  3.71428571428571 10.5  L 5.42857142857143 10.5  C 5.51190476190476 10.5  5.58035714285714 10.52734375  5.63392857142857 10.58203125  Z M 9.0625 8.24869791666667  C 9.11607142857143 8.30338541666667  9.14285714285714 8.37326388888889  9.14285714285714 8.45833333333333  L 9.14285714285714 13.7083333333333  C 9.14285714285714 13.7934027777778  9.11607142857143 13.86328125  9.0625 13.91796875  C 9.00892857142857 13.97265625  8.94047619047619 14  8.85714285714286 14  L 7.14285714285714 14  C 7.05952380952381 14  6.99107142857143 13.97265625  6.9375 13.91796875  C 6.88392857142857 13.86328125  6.85714285714286 13.7934027777778  6.85714285714286 13.7083333333333  L 6.85714285714286 8.45833333333333  C 6.85714285714286 8.37326388888889  6.88392857142857 8.30338541666667  6.9375 8.24869791666667  C 6.99107142857143 8.19401041666667  7.05952380952381 8.16666666666667  7.14285714285714 8.16666666666667  L 8.85714285714286 8.16666666666667  C 8.94047619047619 8.16666666666667  9.00892857142857 8.19401041666667  9.0625 8.24869791666667  Z M 12.4910714285714 4.74869791666667  C 12.5446428571429 4.80338541666667  12.5714285714286 4.87326388888889  12.5714285714286 4.95833333333333  L 12.5714285714286 13.7083333333333  C 12.5714285714286 13.7934027777778  12.5446428571429 13.86328125  12.4910714285714 13.91796875  C 12.4375 13.97265625  12.3690476190476 14  12.2857142857143 14  L 10.5714285714286 14  C 10.4880952380952 14  10.4196428571429 13.97265625  10.3660714285714 13.91796875  C 10.3125 13.86328125  10.2857142857143 13.7934027777778  10.2857142857143 13.7083333333333  L 10.2857142857143 4.95833333333333  C 10.2857142857143 4.87326388888889  10.3125 4.80338541666667  10.3660714285714 4.74869791666667  C 10.4196428571429 4.69401041666667  10.4880952380952 4.66666666666667  10.5714285714286 4.66666666666667  L 12.2857142857143 4.66666666666667  C 12.3690476190476 4.66666666666667  12.4375 4.69401041666667  12.4910714285714 4.74869791666667  Z M 15.9196428571429 0.08203125  C 15.9732142857143 0.13671875  16 0.20659722222222  16 0.291666666666667  L 16 13.7083333333333  C 16 13.7934027777778  15.9732142857143 13.86328125  15.9196428571429 13.91796875  C 15.8660714285714 13.97265625  15.797619047619 14  15.7142857142857 14  L 14 14  C 13.9166666666667 14  13.8482142857143 13.97265625  13.7946428571429 13.91796875  C 13.7410714285714 13.86328125  13.7142857142857 13.7934027777778  13.7142857142857 13.7083333333333  L 13.7142857142857 0.291666666666667  C 13.7142857142857 0.20659722222222  13.7410714285714 0.13671875  13.7946428571429 0.08203125  C 13.8482142857143 0.02734375  13.9166666666667 0  14 0  L 15.7142857142857 0  C 15.797619047619 0  15.8660714285714 0.02734375  15.9196428571429 0.08203125  Z " fill-rule="nonzero" fill="#000000" stroke="none" transform="matrix(1 0 0 1 347 13 )" />
  </g>
</svg>