<?xml version="1.0" encoding="utf-8"?>
<svg version="1.1" xmlns:xlink="http://www.w3.org/1999/xlink" width="18px" height="10px" xmlns="http://www.w3.org/2000/svg">
  <g transform="matrix(1 0 0 1 -375 -17 )">
    <path d="M 2 2  L 15 2  L 15 8  L 2 8  L 2 2  Z M 16 8.75  L 16 6.5  L 17 6.5  L 17 3.5  L 16 3.5  L 16 1.25  C 16 1.17708333333333  15.9765625 1.1171875  15.9296875 1.0703125  C 15.8828125 1.0234375  15.8229166666667 1  15.75 1  L 1.25 1  C 1.17708333333333 1  1.1171875 1.0234375  1.0703125 1.0703125  C 1.0234375 1.1171875  1 1.17708333333333  1 1.25  L 1 8.75  C 1 8.82291666666667  1.0234375 8.8828125  1.0703125 8.9296875  C 1.1171875 8.9765625  1.17708333333333 9  1.25 9  L 15.75 9  C 15.8229166666667 9  15.8828125 8.9765625  15.9296875 8.9296875  C 15.9765625 8.8828125  16 8.82291666666667  16 8.75  Z M 17.70703125 2.79296875  C 17.90234375 2.98828125  18 3.22395833333333  18 3.5  L 18 6.5  C 18 6.77604166666667  17.90234375 7.01171875  17.70703125 7.20703125  C 17.51171875 7.40234375  17.2760416666667 7.5  17 7.5  L 17 8.75  C 17 9.09375  16.8776041666667 9.38802083333333  16.6328125 9.6328125  C 16.3880208333333 9.87760416666667  16.09375 10  15.75 10  L 1.25 10  C 0.90625 10  0.611979166666667 9.87760416666667  0.3671875 9.6328125  C 0.122395833333333 9.38802083333333  0 9.09375  0 8.75  L 0 1.25  C 0 0.90625  0.122395833333333 0.611979166666666  0.3671875 0.3671875  C 0.611979166666667 0.122395833333332  0.90625 0  1.25 0  L 15.75 0  C 16.09375 0  16.3880208333333 0.122395833333332  16.6328125 0.3671875  C 16.8776041666667 0.611979166666666  17 0.90625  17 1.25  L 17 2.5  C 17.2760416666667 2.5  17.51171875 2.59765625  17.70703125 2.79296875  Z " fill-rule="nonzero" fill="#000000" stroke="none" transform="matrix(1 0 0 1 375 17 )" />
  </g>
</svg>