<?xml version="1.0" encoding="utf-8"?>
<svg version="1.1" xmlns:xlink="http://www.w3.org/1999/xlink" width="36px" height="36px" xmlns="http://www.w3.org/2000/svg">
  <g transform="matrix(1 0 0 1 -36 -837 )">
    <path d="M 54 837  C 64.08 837  72 844.92  72 855  C 72 865.08  64.08 873  54 873  C 43.92 873  36 865.08  36 855  C 36 844.92  43.92 837  54 837  Z " fill-rule="nonzero" fill="#333333" stroke="none" />
    <path d="M 54 837.5  C 63.8 837.5  71.5 845.2  71.5 855  C 71.5 864.8  63.8 872.5  54 872.5  C 44.2 872.5  36.5 864.8  36.5 855  C 36.5 845.2  44.2 837.5  54 837.5  Z " stroke-width="1" stroke="#797979" fill="none" />
  </g>
</svg>